<?xml version="1.0" encoding="UTF-8" standalone="no"?>
<svg width="928px" height="596px" viewBox="0 0 928 596" version="1.1" xmlns="http://www.w3.org/2000/svg" xmlns:xlink="http://www.w3.org/1999/xlink">
    <!-- Generator: Sketch 3.8.3 (29802) - http://www.bohemiancoding.com/sketch -->
    <title>Group</title>
    <desc>Created with Sketch.</desc>
    <defs></defs>
    <g id="Page-1" stroke="none" stroke-width="1" fill="none" fill-rule="evenodd">
        <g id="iPad-Landscape" transform="translate(-64.000000, -29.000000)">
            <g id="Group" transform="translate(64.000000, 29.000000)">
                <rect id="Rectangle-5" fill="#FFFFFF" x="0" y="0" width="703" height="596"></rect>
                <path d="M313.5,270 L379.5,270" id="Line" stroke="#4A4A4A" stroke-width="6" stroke-linecap="square"></path>
                <path id="Line-decoration-1" d="M379.5,270 L368.7,267 L368.7,273 L379.5,270 Z" stroke="#4A4A4A" stroke-width="6" stroke-linecap="square"></path>
                <path d="M111,313 L111,378" id="Line" stroke="#4A4A4A" stroke-width="6" stroke-linecap="square"></path>
                <path id="Line-decoration-1" d="M111,378 L114,367.2 L108,367.2 L111,378 Z" stroke="#4A4A4A" stroke-width="6" stroke-linecap="square"></path>
                <path d="M263,386 L263,321" id="Line" stroke="#4A4A4A" stroke-width="6" stroke-linecap="square"></path>
                <path id="Line-decoration-1" d="M263,321 L260,331.8 L266,331.8 L263,321 Z" stroke="#4A4A4A" stroke-width="6" stroke-linecap="square"></path>
                <path d="M640,270 L750,270" id="Line" stroke="#9B9B9B" stroke-width="6" stroke-linecap="square"></path>
                <path id="Line-decoration-1" d="M750,270 L739.2,267 L739.2,273 L750,270 Z" stroke="#9B9B9B" stroke-width="6" stroke-linecap="square"></path>
                <path d="M753,434 L324,434" id="Line" stroke="#9B9B9B" stroke-width="6" stroke-linecap="square"></path>
                <path id="Line-decoration-1" d="M324,434 L334.8,437 L334.8,431 L324,434 Z" stroke="#9B9B9B" stroke-width="6" stroke-linecap="square"></path>
                <text id="Browser" font-family="HelveticaNeue-Bold, Helvetica Neue" font-size="32" font-weight="bold" fill="#000000">
                    <tspan x="16" y="49">Browser</tspan>
                </text>
                <g id="Group-2" transform="translate(756.000000, 226.000000)">
                    <rect id="Rectangle-6" fill="#FFFFFF" x="0" y="0" width="172" height="87"></rect>
                    <text id="OS" font-family="HelveticaNeue-Bold, Helvetica Neue" font-size="32" font-weight="bold" fill="#000000">
                        <tspan x="63.168" y="52">OS</tspan>
                    </text>
                </g>
                <g id="Group-2" transform="translate(756.000000, 389.000000)">
                    <rect id="Rectangle-6" fill="#FFFFFF" x="0" y="0" width="172" height="87"></rect>
                    <text id="GPU" font-family="HelveticaNeue-Bold, Helvetica Neue" font-size="32" font-weight="bold" fill="#000000">
                        <tspan x="51.328" y="52">GPU</tspan>
                    </text>
                </g>
                <g id="Group-3" transform="translate(62.000000, 226.000000)">
                    <rect id="Rectangle-8" fill="#4990E2" x="0" y="0" width="251" height="87"></rect>
                    <text id="Javascript" font-family="HelveticaNeue-Bold, Helvetica Neue" font-size="32" font-weight="bold" fill="#FFFFFF">
                        <tspan x="46.38" y="52">Javascript</tspan>
                    </text>
                </g>
                <g id="Group-3" transform="translate(389.000000, 226.000000)">
                    <rect id="Rectangle-8" fill="#4990E2" x="0" y="0" width="251" height="87"></rect>
                    <text id="WebGL" font-family="HelveticaNeue-Bold, Helvetica Neue" font-size="32" font-weight="bold" fill="#FFFFFF">
                        <tspan x="70.716" y="52">WebGL</tspan>
                    </text>
                </g>
                <g id="Group-3" transform="translate(62.000000, 389.000000)">
                    <rect id="Rectangle-8" fill="#4990E2" x="0" y="0" width="251" height="87"></rect>
                    <text id="Canvas" font-family="HelveticaNeue-Bold, Helvetica Neue" font-size="32" font-weight="bold" fill="#FFFFFF">
                        <tspan x="68.876" y="52">Canvas</tspan>
                    </text>
                </g>
                <path d="M838,316 L838,375" id="Line" stroke="#FFFFFF" stroke-width="6" stroke-linecap="square"></path>
                <path id="Line-decoration-1" d="M838,375 L841,364.2 L835,364.2 L838,375 Z" stroke="#FFFFFF" stroke-width="6" stroke-linecap="square"></path>
            </g>
        </g>
    </g>
</svg>